<?xml version="1.0" encoding="UTF-8"?>
<svg xmlns="http://www.w3.org/2000/svg" width="1089" height="690" viewBox="0 0 1089 690">
  
  <path d="M534.4,136.1 L534.4,136.1 L534.6,136.1 L535.1,136.1 L535.7,136.1 L536.4,136.1 L537.3,136.1 L538.4,136.1 L539.5,136.1 L540.5,136.1 L541.5,136.1 L542.4,136.1 L543.3,136.1 L543.9,136.1 L544.4,136.1 L545.0,136.1 L545.7,136.1 L546.2,136.1 L546.7,136.1 L547.1,136.1 L547.5,136.1 L547.9,136.1 L548.3,136.1 L548.8,136.1 L549.3,136.1 L549.8,136.1 L550.5,136.0 L551.0,135.9 L551.4,135.9 L552.1,135.9 L552.7,135.9 L553.5,135.8 L554.1,135.6 L554.7,135.5 L555.3,135.4 L556.0,135.2 L556.5,135.0 L557.0,134.7 L557.3,134.4 L557.7,134.2 L558.1,134.0 L558.3,133.8 L558.5,133.7 L558.7,133.5 L558.8,133.3 L558.8,133.2 L558.8,133.0 L558.8,132.8 L558.8,132.6 L558.8,132.3 L558.8,131.9 L558.7,131.5 L558.4,131.0 L557.9,130.5 L557.4,130.1 L556.8,129.6 L556.1,129.0 L555.1,128.4 L553.9,127.6 L552.6,127.0 L551.5,126.5 L550.1,126.1 L548.2,125.5 L546.2,125.0 L544.3,124.7 L542.8,124.6 L540.9,124.4 L539.0,124.2 L537.7,124.1 L536.2,124.0 L534.6,124.0 L532.8,123.9 L531.0,123.9 L529.3,123.9 L527.8,123.9 L526.3,123.9 L524.8,123.9 L523.4,123.9 L522.3,123.9 L521.4,123.9 L520.5,123.9 L519.5,123.9 L518.9,123.9 L518.4,123.9 L517.8,123.9 L517.2,124.0 L516.7,124.2 L516.3,124.3 L515.9,124.4 L515.6,124.5 L515.3,124.7 L514.9,124.9 L514.7,125.1 L514.4,125.3 L514.1,125.6 L513.9,125.8 L513.8,126.0 L513.5,126.3 L513.3,126.6 L513.0,126.9 L512.9,127.3 L512.8,127.7 L512.6,128.1 L512.5,128.6 L512.5,129.1 L512.4,129.7 L512.3,130.3 L512.3,131.1 L512.3,131.9 L512.3,132.6 L512.3,133.5 L512.3,134.2 L512.3,134.8 L512.4,135.7 L512.9,136.7 L513.3,137.6 L513.7,138.3 L514.3,139.1 L515.0,139.9 L515.7,140.8 L516.5,141.6 L517.3,142.1 L518.2,142.7 L519.2,143.5 L519.9,144.0 L520.5,144.3 L521.5,144.8 L522.5,145.2 L523.6,145.5 L524.7,145.7 L525.9,146.0 L527.3,146.2 L529.1,146.4 L530.8,146.4 L532.3,146.4 L534.1,146.4 L535.5,146.4 L536.8,146.4 L538.8,146.4 L540.9,146.4 L542.7,146.4 L544.8,146.4 L546.8,146.4 L548.8,146.3 L551.3,146.0 L552.9,145.8 L554.5,145.7 L556.4,145.4 L558.0,145.1 L559.6,145.0 L561.2,144.9 L562.7,144.5 L563.9,144.3 L565.2,144.1 L566.6,143.8 L568.1,143.6 L569.5,143.2 L570.9,142.8 L572.2,142.5 L573.5,142.3 L574.8,141.9 L576.0,141.4 L577.1,140.9 L578.3,140.4 L579.4,139.9 L580.2,139.6 L581.0,139.2 L582.0,138.7 L583.1,138.2 L584.0,137.6 L584.7,137.1 L585.5,136.6 L586.1,136.1 L586.7,135.5 L587.2,135.1 L587.5,134.6 L587.7,134.0 L587.9,133.5 L588.1,132.9 L588.3,132.4 L588.4,131.8 L588.4,131.1 L588.4,130.3 L588.4,129.5 L588.4,128.7 L588.4,127.7 L588.2,126.8 L587.7,125.5 L586.8,124.2 L585.7,123.0 L584.6,121.6 L583.2,120.4 L581.7,119.1 L580.1,117.7 L578.6,116.5 L577.1,115.4 L575.1,114.2 L573.0,112.9 L570.6,111.7 L568.5,110.7 L566.6,109.9 L564.5,109.0 L562.5,108.1 L560.4,107.4 L558.7,107.0 L557.3,106.6 L555.1,105.8 L553.0,105.3 L551.5,104.9 L549.5,104.5 L547.6,104.2 L545.6,103.9 L543.3,103.6 L541.2,103.4 L539.1,103.4 L537.0,103.3 L535.2,103.3 L533.5,103.3 L531.7,103.3 L529.5,103.3 L527.2,103.3 L526.1,103.3 L524.7,103.3 L523.1,103.3 L521.5,103.4 L519.4,103.7 L517.7,104.0 L516.3,104.3 L514.5,104.9 L513.0,105.3 L511.8,105.7 L510.5,106.0 L509.2,106.3 L508.2,106.6 L507.1,107.0 L506.2,107.3 L505.4,107.6 L504.3,108.1 L503.4,108.5 L502.4,109.0 L501.4,109.5 L500.6,110.1 L499.7,110.7 L498.9,111.3 L498.3,111.8 L497.7,112.5 L496.9,113.4 L496.2,114.2 L495.5,115.1 L495.0,115.7 L494.6,116.5 L493.9,117.6 L493.3,118.7 L492.6,119.9 L492.0,121.1 L491.5,122.2 L491.0,123.8 L490.4,125.5 L490.1,127.0 L489.8,128.3 L489.6,130.0 L489.3,132.0 L489.0,133.4 L488.8,134.5 L488.7,135.8 L488.5,137.5 L488.3,139.3 L488.1,140.9 L488.1,142.4 L488.1,143.9 L488.1,145.4 L488.1,146.7 L488.1,147.9 L488.1,149.0 L488.1,149.9 L488.2,150.8 L488.4,151.6 L488.6,152.1 L488.7,152.6 L489.1,153.4 L489.5,154.0 L489.8,154.7 L490.4,155.5 L491.1,156.2 L491.8,156.9 L492.5,157.6 L493.2,158.4 L493.8,159.0 L494.3,159.6 L495.0,160.1 L495.6,160.7 L496.1,161.0 L496.6,161.1 L497.4,161.4 L498.3,161.8 L499.2,162.0 L500.6,162.3 L502.2,162.6 L503.6,162.8 L505.5,163.1 L507.4,163.4 L509.3,163.7 L511.3,163.8 L513.1,164.0 L514.5,164.1 L515.9,164.2 L517.5,164.3 L519.5,164.4 L522.3,164.5 L524.4,164.7 L526.2,164.7 L528.3,164.7 L530.6,164.8 L532.8,165.0 L534.5,165.1 L536.7,165.2 L538.6,165.2 L540.1,165.4 L541.5,165.6 L542.9,165.7 L544.6,165.8 L546.3,166.0 L548.3,166.1 L550.1,166.3 L551.9,166.3 L554.1,166.3 L555.9,166.3 L558.0,166.3 L560.5,166.3 L562.8,166.3 L564.5,166.3 L566.6,166.3 L568.6,166.3 L570.0,166.3 L572.2,166.3 L573.8,166.3 L575.8,166.3 L577.8,166.3 L579.2,166.3 L580.9,166.3 L582.5,166.3 L584.6,166.0 L586.7,165.5 L588.0,165.1 L589.7,164.5 L591.7,163.8 L593.0,163.3 L594.2,162.8 L595.6,162.1 L597.4,161.2 L599.3,160.1 L600.7,159.2 L601.9,158.4 L603.3,157.3 L604.5,156.2 L605.6,155.2 L606.7,154.1 L607.5,153.1 L608.3,152.3 L609.0,151.5 L609.5,150.6 L610.0,149.8 L610.6,148.8 L611.3,147.7 L611.9,146.5 L612.5,145.3 L613.0,144.2 L613.4,143.1 L613.8,141.7 L614.1,140.1 L614.3,138.3 L614.6,136.4 L614.8,134.7 L614.8,132.9 L614.8,131.3 L614.8,129.6 L614.8,127.9 L614.7,126.3 L614.3,124.3 L613.6,122.0 L612.9,120.2 L612.3,118.8 L611.5,117.3 L610.6,115.9 L609.6,114.5 L608.7,113.4 L607.3,112.0 L605.7,110.4 L604.7,109.5 L604.0,108.9 L603.1,107.9 L601.8,106.8 L600.3,105.5 L598.7,104.2 L597.3,103.1 L595.9,101.9 L594.3,100.8 L592.8,99.8 L591.2,98.8 L589.7,98.0 L587.8,96.9 L585.8,95.7 L584.6,95.2 L583.2,94.5 L581.2,93.7 L579.1,93.0 L577.0,92.4 L574.9,91.8 L572.7,91.3 L570.2,91.0 L567.8,90.5 L565.5,90.1 L563.0,89.7 L560.5,89.6 L557.9,89.4 L555.8,89.2 L553.7,89.1 L550.3,89.0 L547.2,88.9 L544.5,88.9 L541.0,88.9 L537.8,88.9 L535.0,88.9 L531.9,88.9 L529.0,88.9 L526.2,88.9 L523.2,89.1 L520.5,89.4 L517.9,89.9 L515.2,90.5 L513.2,91.0 L511.0,91.3 L508.5,91.8 L506.0,92.4 L503.7,93.0 L501.9,93.5 L499.7,94.1 L497.5,94.7 L495.3,95.4 L493.0,96.1 L491.7,96.6 L490.4,97.1 L488.8,97.8 L487.6,98.4 L486.7,98.9 L485.5,99.5 L484.0,100.4 L482.8,101.0 L481.8,101.6 L480.8,102.4 L479.9,103.0 L479.0,103.8 L478.1,104.5 L477.2,105.3 L476.4,106.0 L475.5,106.9 L474.8,107.9 L474.2,108.6 L473.6,109.3 L473.0,110.1 L472.5,110.9 L472.0,111.7 L471.6,112.5 L471.1,113.3 L470.7,114.3 L470.5,115.1 L470.2,115.9 L470.0,116.9 L469.9,117.8 L469.9,118.9 L469.7,120.0 L469.6,120.8 L469.6,121.7 L469.6,123.4 L469.6,124.9 L469.6,126.2 L469.6,128.5 L469.6,130.3 L469.6,131.7 L469.6,133.4 L469.6,135.4 L469.6,137.4 L469.8,139.1 L470.0,140.8 L470.3,142.7 L470.6,144.7 L470.7,146.3 L470.8,148.2 L471.1,150.2 L471.2,152.5 L471.4,154.4 L471.5,156.8 L471.7,159.2 L471.9,161.4 L472.2,164.0 L472.4,166.1 L472.5,168.1 L472.7,170.1 L472.8,172.1 L473.0,173.4 L473.1,174.5 L473.2,176.1 L473.3,178.2 L473.5,180.6 L473.6,182.3 L473.7,184.3 L473.9,186.6 L474.2,188.7 L474.5,191.1 L474.6,193.4 L474.8,195.6 L475.0,197.2 L475.3,198.8 L475.4,200.3 L475.5,201.6 L475.7,203.2 L476.0,204.8 L476.2,206.3 L476.3,207.8 L476.6,209.6 L476.7,211.1 L476.9,212.4 L477.0,213.8 L477.1,215.3 L477.4,216.6 L477.6,217.7 L477.8,218.6 L478.0,219.3 L478.2,220.2 L478.5,221.0 L478.7,221.7 L479.1,222.4 L479.6,223.1 L480.1,223.9 L480.7,224.9 L481.3,225.7 L482.1,226.5 L482.9,227.4 L483.8,228.2 L484.5,228.9 L485.1,229.6 L485.7,230.0 L486.3,230.5 L487.1,231.0 L487.7,231.5 L488.5,231.9 L489.3,232.2 L490.0,232.6 L490.7,232.8 L491.3,233.0 L492.0,233.2 L492.5,233.5 L493.1,233.7 L493.6,233.9 L493.9,234.0 L494.3,234.0 L494.7,234.1 L495.2,234.1 L495.7,234.2 L496.0,234.3 L496.5,234.3 L497.0,234.3 L497.4,234.3 L497.9,234.3 L498.5,234.3 L498.9,234.3 L499.4,234.3 L500.0,234.3 L500.5,234.3 L500.9,234.3 L501.4,234.3 L502.0,234.3 L502.5,234.3 L503.1,234.3 L503.7,234.3 L504.2,234.3 L504.7,234.3 L505.2,234.3 L505.7,234.3 L506.1,234.3 L506.5,234.3 L507.0,234.3 L507.5,234.3 L507.9,234.3 L508.3,234.2 L508.8,234.1 L509.4,233.9 L510.1,233.6 L510.5,233.4 L511.0,233.4 L511.5,233.2 L511.9,233.1 L512.3,232.9 L512.7,232.7 L513.1,232.5 L513.5,232.3 L513.8,232.1 L514.2,231.9 L514.6,231.7 L515.0,231.4 L515.4,231.2 L515.8,230.9 L516.3,230.6 L516.6,230.4 L516.9,230.2 L517.2,229.9 L517.4,229.6 L517.6,229.3 L517.7,228.9 L517.9,228.7 L518.1,228.4 L518.2,228.1 L518.2,227.7 L518.2,227.4 L518.2,227.1 L518.2,226.8 L518.2,226.6 L518.2,226.3 L518.2,226.0 L518.1,225.6 L517.8,225.2 L517.3,224.7 L516.7,224.2 L516.1,223.7 L515.7,223.4 L515.0,223.0 L514.4,222.6 L513.8,222.2 L513.3,221.9 L512.6,221.5 L512.0,221.4 L511.4,221.3 L510.9,221.1 L510.2,221.0 L509.6,220.9 L509.0,220.8 L508.3,220.7 L507.8,220.7 L507.2,220.7 L506.5,220.7 L505.7,220.7 L504.9,220.7 L504.1,220.7 L503.3,220.7 L502.5,220.7 L501.7,220.7 L501.0,220.7 L500.3,220.7 L499.7,220.7 L499.0,220.7 L498.4,220.8 L497.9,221.0 L497.4,221.2 L496.9,221.4 L496.3,221.6 L495.7,221.8 L495.1,222.0 L494.4,222.2 L493.9,222.4 L493.3,222.6 L492.7,222.9 L492.0,223.1 L491.5,223.3 L491.1,223.5 L490.6,223.7 L490.2,223.8 L490.0,223.8 L489.7,224.0 L489.5,224.1 L489.3,224.1 L489.2,224.2 L489.1,224.4 L489.0,224.5 L488.8,224.7 L488.5,224.9 L488.1,225.3 L487.7,225.8 L487.4,226.2 L487.0,226.7 L486.6,227.3 L486.2,228.0 L485.7,228.9 L485.2,229.9 L484.7,231.0 L484.4,232.1 L484.0,233.2 L483.6,234.5 L483.2,235.8 L482.8,236.9 L482.6,238.0 L482.4,239.0 L482.4,239.7 L482.2,240.5 L482.0,241.4 L482.0,242.2 L482.0,242.9 L482.0,243.6 L482.0,244.2 L482.0,244.9 L481.9,245.6 L481.8,246.1 L481.8,246.5 L481.8,246.8 L481.8,247.0 L481.8,247.1 L481.8,247.3 L481.8,247.5 L481.8,247.8 L481.8,248.2 L481.8,248.5 L481.8,248.8 L481.7,249.1 L481.6,249.3 L481.6,249.5 L481.6,249.7 L481.6,249.9 L481.6,250.0 L481.6,250.2 L481.6,250.4 L481.6,250.5 L481.6,250.7 L481.6,250.8 L481.6,251.0 L481.6,251.2 L481.6,251.4 L481.6,251.5 L481.6,251.7 L481.6,252.4 L481.6,254.4 L481.6,257.0 L481.4,260.5 L481.2,264.8 L481.1,267.9 L480.9,270.9 L480.8,274.1 L480.6,276.7 L480.5,278.7 L480.3,279.8 L480.3,280.5 L480.3,281.2 L480.3,281.7 L480.3,282.1 L480.3,282.3 L480.3,282.5" stroke="#EF4444" stroke-width="3" fill="none" stroke-linecap="round" stroke-linejoin="round" opacity="1"
    stroke-dasharray="888.4" stroke-dashoffset="888.4">
    <animate id="draw1" attributeName="stroke-dashoffset" from="888.4" to="0" dur="1s" begin="0.0s; reverse1.end + 2s" fill="freeze" calcMode="spline" keySplines="0.4 0 0.6 1" />
    <animate id="reverse1" attributeName="stroke-dashoffset" from="0" to="-888.4" dur="1s" begin="draw1.end + 2s" fill="freeze" calcMode="spline" keySplines="0.4 0 0.6 1" />
    <animate attributeName="stroke" values="#EF4444;#0EA5E9;#FBBF24;#1E3A8A;#EF4444" dur="3s" repeatCount="indefinite" />
  </path>
  <path d="M480.3,282.5 L480.3,282.6 L480.3,282.8 L480.3,283.1 L480.3,283.4 L480.3,283.8 L480.3,284.3 L480.3,285.0 L480.3,285.7 L480.2,286.2 L480.0,287.0 L479.8,287.8 L479.6,288.5 L479.4,289.1 L479.2,289.8 L478.9,290.4 L478.8,290.9 L478.6,291.4 L478.4,292.0 L478.3,292.7 L478.1,293.3 L477.9,294.1 L477.7,294.9 L477.5,295.6 L477.3,296.2 L477.0,296.9 L476.8,297.6 L476.6,298.2 L476.4,298.8 L476.2,299.3 L476.1,299.8 L476.0,300.6 L475.9,301.2 L475.8,301.7 L475.6,302.4 L475.4,303.1 L475.2,303.9 L474.9,304.7 L474.7,305.5 L474.5,306.2 L474.3,307.0 L474.0,307.9 L473.8,308.7 L473.6,309.5 L473.4,310.2 L473.2,311.1 L473.0,312.1 L472.7,313.2 L472.5,314.8 L472.2,316.1 L471.9,317.3 L471.7,318.7 L471.4,319.8 L471.2,321.1 L471.0,322.2 L470.9,323.3 L470.8,324.4 L470.7,325.1 L470.6,325.9 L470.6,327.0 L470.5,327.9 L470.4,328.9 L470.3,329.8 L470.3,330.8 L470.3,331.8 L470.3,332.7 L470.3,333.7 L470.3,334.8 L470.3,336.1 L470.3,337.3 L470.3,338.5 L470.3,339.4 L470.3,340.2 L470.3,341.4 L470.3,342.6 L470.3,343.9 L470.3,345.2 L470.3,346.5 L470.3,347.8 L470.4,349.1 L470.7,350.4 L470.8,351.7 L470.9,353.0 L471.2,354.2 L471.4,355.8 L471.6,357.1 L471.9,358.1 L472.0,359.3 L472.1,360.5 L472.4,361.9 L472.6,363.2 L472.8,364.5 L473.0,365.8 L473.1,367.1 L473.4,368.4 L473.5,369.5 L473.6,370.6 L473.9,371.7 L474.1,372.6 L474.3,373.3 L474.5,374.1 L474.7,374.8 L475.0,375.6 L475.3,376.5 L475.7,377.2 L476.1,377.8 L476.5,378.4 L476.9,378.8 L477.3,379.3 L477.7,379.8 L478.2,380.1 L478.9,380.5 L479.6,380.9 L480.4,381.3 L481.3,381.7 L482.4,382.1 L483.6,382.5 L484.9,383.0 L485.9,383.3 L487.2,383.7 L488.5,384.2 L489.8,384.6 L491.3,385.0 L493.1,385.6 L494.6,386.0 L496.3,386.4 L498.3,386.9 L499.5,387.2 L500.9,387.5 L502.4,387.8 L503.9,388.1 L505.7,388.5 L507.4,388.9 L509.3,389.2 L511.2,389.6 L512.9,390.0 L514.5,390.3 L516.8,390.8 L519.1,391.2 L520.9,391.6 L522.9,392.1 L524.3,392.4 L525.8,392.8 L527.7,393.2 L529.4,393.7 L530.9,394.1 L532.6,394.5 L534.4,394.9 L536.1,395.3 L537.4,395.7 L539.0,396.0 L540.4,396.3 L542.3,396.6 L544.3,396.8 L545.3,397.0 L546.7,397.2 L548.7,397.5 L550.2,397.7 L551.7,397.7 L553.5,397.8 L555.2,397.8 L556.9,397.8 L558.9,397.8 L560.7,397.8 L562.1,397.8 L563.8,397.8 L565.8,397.8 L567.4,397.8 L568.7,397.8 L570.0,397.8 L571.1,397.8 L572.5,397.8 L574.2,397.8 L575.5,397.8 L576.6,397.8 L577.9,397.8 L579.2,397.8 L580.4,397.8 L581.5,397.8 L582.8,397.8 L584.0,397.8 L585.1,397.8 L586.0,397.8 L587.1,397.8 L588.6,397.8 L590.1,397.8 L591.7,397.8 L593.5,397.7 L595.0,397.5 L596.5,397.4 L598.2,397.1 L599.7,396.9 L601.2,396.6 L603.2,396.2 L604.9,395.8 L606.1,395.7 L607.5,395.3 L608.5,395.0 L609.4,394.8 L610.7,394.5 L612.0,394.2 L612.8,393.9 L613.6,393.6 L614.4,393.3 L615.1,392.9 L615.7,392.6 L616.1,392.3 L616.5,392.0 L616.8,391.7 L617.1,391.3 L617.3,391.0 L617.4,390.8 L617.6,390.5 L617.8,390.1 L618.0,389.8 L618.1,389.6 L618.1,389.4 L618.1,389.2 L618.1,389.0 L618.1,388.8 L618.1,388.6 L618.1,388.5 L617.9,388.3 L617.0,387.8 L615.9,387.3 L614.7,386.9 L612.9,386.3 L611.0,385.9 L609.3,385.5 L606.8,385.1 L604.1,384.6 L601.9,384.2 L600.5,384.1 L598.3,383.9 L595.6,383.6 L594.0,383.5 L592.5,383.4 L590.4,383.2 L587.9,383.1 L585.7,382.8 L583.8,382.5 L581.4,382.2 L579.1,381.9 L576.6,381.6 L574.3,381.3 L572.3,381.0 L569.8,380.7 L565.6,379.9 L563.8,379.6 L562.1,379.3 L559.7,378.8 L556.9,378.3 L554.3,377.8 L552.0,377.4 L549.3,376.8 L546.7,376.2 L544.1,375.5 L541.3,375.0 L538.6,374.7 L536.1,374.2 L533.7,373.8 L531.3,373.5 L529.5,373.2 L528.2,373.1 L526.0,372.9 L523.8,372.7 L522.2,372.4 L520.3,372.2 L518.6,372.1 L517.1,371.8 L515.7,371.7 L514.6,371.6 L513.6,371.4 L512.7,371.4 L511.8,371.4 L511.0,371.4 L510.3,371.4 L509.5,371.4 L508.7,371.4 L507.8,371.4 L507.0,371.4 L506.2,371.4 L505.1,371.4 L504.3,371.4 L503.6,371.5 L502.6,371.8 L501.7,372.1 L500.8,372.6 L499.7,373.0 L498.8,373.4 L498.0,373.9 L496.9,374.4 L495.8,375.0 L494.7,375.8 L493.5,376.5 L492.5,377.2 L491.7,377.8 L490.7,378.4 L489.8,379.0 L489.0,379.7 L488.4,380.3 L487.7,380.9 L487.0,381.4 L486.5,381.8 L486.1,382.3 L485.5,383.0 L485.0,383.6 L484.4,384.3 L483.8,385.1 L483.1,386.0 L482.5,386.9 L481.9,387.7 L481.3,388.5 L480.9,389.4 L480.4,390.2 L480.1,390.9 L479.8,391.5 L479.6,392.0 L479.5,392.4 L479.4,392.9 L479.4,393.5 L479.4,394.1 L479.4,394.7 L479.4,395.3 L479.4,396.4 L479.7,397.5 L480.6,398.6 L481.8,399.8 L483.4,401.3 L485.1,402.7 L487.0,404.2 L488.7,405.3 L490.5,406.3 L492.3,407.4 L494.1,408.3 L496.2,409.4 L498.1,410.2 L500.4,411.1 L502.9,412.1 L504.8,412.6 L506.8,412.9 L508.8,413.2 L511.1,413.7 L513.5,414.1 L515.9,414.4 L517.8,414.7 L519.8,414.9 L521.7,415.2 L523.4,415.5 L525.7,415.8 L527.7,416.0 L530.1,416.4 L532.6,416.7 L534.7,417.0 L536.8,417.1 L538.9,417.3 L541.2,417.4 L543.4,417.6 L545.6,417.9 L547.5,418.0 L549.4,418.1 L552.1,418.3 L554.3,418.4 L556.2,418.7 L558.4,418.8 L560.6,419.0 L562.9,419.2 L565.3,419.3 L567.0,419.5 L568.6,419.5 L570.6,419.5 L572.6,419.5 L574.4,419.5 L575.7,419.5 L577.1,419.5 L578.7,419.5 L580.2,419.5 L581.7,419.5 L583.2,419.5 L584.7,419.5 L586.1,419.5 L587.7,419.5 L589.0,419.5 L590.1,419.5 L591.2,419.5 L592.3,419.5 L593.0,419.5 L593.6,419.5 L594.2,419.5 L594.9,419.4 L595.7,419.3 L596.4,419.2 L596.9,419.1 L597.6,419.0 L598.2,418.9 L598.9,418.8 L599.5,418.7 L600.0,418.6 L600.6,418.3 L601.2,418.2 L601.7,418.1 L602.1,417.9 L602.6,417.6 L603.2,417.4 L603.9,417.2 L604.6,417.0 L605.1,416.8 L605.7,416.5 L606.3,416.1 L607.0,415.9 L607.6,415.7 L608.3,415.3 L608.9,415.0 L609.5,414.8 L609.9,414.7 L610.4,414.5 L611.0,414.2 L611.5,413.9 L612.2,413.7 L612.9,413.3 L613.7,413.0 L614.4,412.7 L615.1,412.3 L615.7,412.1 L616.4,411.8 L617.2,411.3 L618.0,411.0 L618.6,410.7 L619.1,410.3 L619.6,410.0 L620.2,409.6 L620.8,409.2 L621.5,408.7 L622.1,408.3 L622.8,407.8 L623.5,407.4 L624.0,407.0 L624.5,406.4 L625.0,405.9 L625.5,405.5 L625.9,405.1 L626.2,404.7 L626.4,404.2 L626.5,403.8 L626.7,403.5 L626.9,403.1 L627.1,402.6 L627.3,402.1 L627.5,401.7 L627.7,401.3 L627.8,401.0 L627.8,400.6 L627.8,400.3 L627.8,400.2 L627.8,399.9 L627.8,399.5 L627.8,399.3 L627.8,399.0 L627.8,398.7 L627.8,398.4 L627.8,398.1 L627.6,397.7 L627.3,397.3 L626.9,396.9 L626.5,396.5 L626.0,396.2 L625.5,395.9 L625.1,395.6 L624.7,395.3 L624.4,395.1 L624.2,394.9 L623.9,394.7 L623.5,394.5 L623.2,394.4 L622.9,394.2 L622.5,394.0 L622.1,393.8 L621.7,393.5 L621.4,393.2 L621.2,393.1 L621.0,393.0 L620.9,392.9 L620.7,392.8 L620.5,392.7 L620.5,392.6 L620.4,392.6 L620.2,392.5 L620.0,392.3 L619.9,392.2 L619.7,392.1 L619.3,391.9 L619.0,391.8 L618.7,391.6 L618.4,391.5 L618.2,391.4 L618.0,391.4 L617.9,391.4 L617.7,391.4 L617.6,391.5 L617.6,391.7 L617.7,391.7 L617.8,391.7 L618.0,391.7 L618.1,391.7 L618.4,391.7 L618.9,391.4 L619.6,390.6 L620.4,389.8 L621.1,389.1 L621.8,388.2 L622.9,386.9 L623.7,385.8 L624.3,385.1 L625.1,383.9 L625.8,382.8 L626.5,381.6 L627.2,380.5 L627.8,379.4 L628.2,378.4 L628.5,377.6 L628.7,376.9 L628.9,376.1 L629.2,375.5 L629.3,375.1 L629.4,374.6 L629.5,374.1 L629.6,373.8 L629.6,373.5 L629.7,373.1 L629.8,372.9 L629.8,372.7 L629.8,372.5 L629.8,372.4 L629.8,372.1 L629.8,371.6 L629.8,370.9 L629.8,370.3 L629.8,369.7 L629.8,368.6 L629.8,367.5 L629.8,366.5 L629.8,365.1 L629.8,363.7 L629.8,362.3 L629.8,360.9 L629.8,359.4 L629.8,358.1 L629.8,356.8 L629.8,355.5 L629.8,354.0 L629.8,352.6 L629.8,351.2 L629.8,350.1 L629.8,348.6 L629.8,347.0 L629.8,345.6 L629.9,344.0 L630.0,342.3 L630.0,340.8 L630.0,339.3 L630.0,337.7 L630.0,336.0 L630.2,333.9 L630.3,332.2 L630.3,331.0 L630.4,329.7 L630.5,328.2 L630.7,326.5 L630.8,324.8 L630.8,322.7 L630.8,321.0 L630.8,319.1 L630.8,317.4 L630.8,315.6 L630.8,313.9 L630.8,312.5 L630.8,310.9 L630.8,309.3 L630.8,307.8 L630.8,306.8 L630.8,305.5 L630.8,304.1 L630.8,302.6 L630.8,300.7 L630.8,298.6 L630.8,297.1 L630.7,295.1 L630.4,292.9 L630.1,290.8 L629.8,288.7 L629.6,287.2 L629.3,285.7 L629.0,283.9 L628.8,282.7 L628.7,281.4 L628.5,280.0 L628.1,278.5 L627.8,277.0 L627.6,275.7 L627.3,274.4 L627.1,273.2 L626.8,272.2 L626.4,271.1 L626.1,270.0 L625.8,269.2 L625.6,268.4 L625.4,267.5 L625.2,266.8 L625.1,266.0 L625.0,265.2 L624.9,264.4 L624.9,263.5 L624.7,262.6 L624.6,261.6 L624.6,259.9 L624.6,259.0 L624.6,258.2 L624.6,257.4 L624.6,256.5 L624.6,255.6 L624.6,254.8 L624.6,254.1 L624.6,253.2 L624.6,252.3 L624.6,251.3 L624.6,250.4 L624.6,249.3 L624.6,248.3 L624.6,247.6 L624.6,246.8 L624.6,245.8 L624.6,245.0 L624.6,244.3 L624.6,243.4 L624.7,242.6 L624.8,241.9 L624.8,241.1 L624.8,240.4 L624.8,239.7 L624.8,239.2 L624.8,238.7 L624.8,238.3 L624.8,237.9 L624.8,237.5 L624.8,237.2 L624.8,237.0 L624.8,236.8 L624.8,236.7 L624.8,236.5 L624.8,236.4 L624.7,236.2 L624.6,236.0 L624.4,235.9 L624.1,235.7 L623.8,235.5 L623.7,235.3 L623.6,235.2 L623.5,235.1 L623.3,235.0 L623.2,235.0 L623.0,234.9 L622.8,234.8 L622.5,234.7 L622.2,234.6 L621.8,234.5 L621.4,234.4 L621.0,234.3 L620.7,234.2 L620.3,234.1 L619.9,234.0 L619.6,233.9 L619.2,233.8 L619.0,233.7 L618.9,233.7 L618.6,233.6 L618.4,233.6 L618.2,233.6 L618.0,233.5 L617.9,233.4 L617.7,233.4 L617.6,233.4" stroke="#FBBF24" stroke-width="3" fill="none" stroke-linecap="round" stroke-linejoin="round" opacity="1"
    stroke-dasharray="743.8" stroke-dashoffset="743.8">
    <animate id="draw2" attributeName="stroke-dashoffset" from="743.8" to="0" dur="1s" begin="1.0s; reverse2.end + 2s" fill="freeze" calcMode="spline" keySplines="0.4 0 0.6 1" />
    <animate id="reverse2" attributeName="stroke-dashoffset" from="0" to="-743.8" dur="1s" begin="draw2.end + 2s" fill="freeze" calcMode="spline" keySplines="0.4 0 0.6 1" />
    <animate attributeName="stroke" values="#FBBF24;#0EA5E9;#1E3A8A;#EF4444;#FBBF24" dur="3s" repeatCount="indefinite" />
  </path>
  <path d="M617.4,233.4 L617.3,233.4 L617.2,233.4 L617.0,233.4 L616.7,233.4 L616.4,233.4 L616.1,233.4 L615.8,233.4 L615.4,233.4 L615.0,233.4 L614.6,233.3 L614.2,233.2 L613.7,233.2 L613.1,233.1 L612.7,233.0 L612.3,232.9 L611.7,232.8 L611.1,232.7 L610.4,232.6 L609.8,232.6 L609.1,232.6 L608.4,232.5 L607.8,232.3 L607.1,232.3 L606.4,232.3 L605.8,232.3 L605.2,232.3 L604.6,232.3 L604.1,232.3 L603.6,232.3 L602.9,232.3 L602.5,232.3 L602.1,232.3 L601.7,232.3 L601.3,232.3 L600.9,232.3 L600.6,232.3 L600.4,232.3 L600.3,232.3 L600.1,232.3 L599.9,232.3 L599.6,232.3 L599.2,232.3 L598.9,232.3 L598.6,232.3 L598.3,232.3 L598.1,232.3 L597.9,232.3 L597.5,232.3 L597.1,232.4 L596.8,232.5 L596.4,232.6 L596.2,232.7 L596.0,232.8 L595.8,232.9 L595.7,232.9 L595.5,233.1 L595.3,233.2 L594.9,233.4 L594.5,233.6 L594.1,233.9 L594.0,234.0 L593.8,234.2 L593.6,234.3 L593.4,234.5 L593.3,234.7 L593.1,234.9 L593.0,235.0 L592.8,235.2 L592.6,235.6 L592.4,235.8 L592.3,236.1 L592.2,236.3 L592.1,236.4 L592.1,236.6 L592.1,236.8 L592.1,237.0 L592.1,237.1 L592.1,237.3 L592.1,237.6 L592.1,237.9 L592.1,238.3 L592.1,238.6 L592.1,238.9 L592.1,239.2 L592.1,239.3 L592.1,239.5 L592.1,239.7 L592.1,239.8 L592.2,240.0 L592.3,240.1 L592.5,240.3 L592.7,240.5 L592.9,240.7 L593.3,240.9 L593.7,241.1 L594.1,241.3 L594.5,241.5 L594.7,241.6 L594.9,241.7 L595.4,241.9 L595.8,242.1 L596.4,242.3 L597.0,242.5 L597.6,242.8 L598.4,243.0 L599.2,243.1 L600.0,243.3 L600.9,243.4 L601.8,243.4 L602.5,243.4 L603.4,243.4 L604.4,243.4 L605.0,243.4 L605.6,243.4 L606.5,243.4 L607.3,243.4 L608.1,243.4 L609.0,243.4 L609.8,243.4 L610.7,243.4 L611.5,243.4 L612.1,243.4 L612.8,243.4 L613.4,243.4 L613.9,243.4 L614.3,243.4 L614.8,243.4 L615.4,243.3 L615.9,243.2 L616.5,243.2 L617.0,243.1 L617.6,243.0 L618.2,242.9 L618.8,242.8 L619.5,242.8 L620.2,242.7 L620.8,242.5 L621.6,242.4 L622.4,242.2 L622.8,242.1 L623.3,241.9 L624.1,241.8 L624.8,241.7 L625.6,241.5 L626.4,241.2 L627.1,241.0 L627.7,240.8 L628.2,240.7 L628.8,240.6 L629.2,240.4 L629.6,240.2 L629.9,240.0 L630.3,239.8 L630.6,239.7 L630.9,239.4 L631.3,239.2 L631.7,238.9 L632.1,238.5 L632.5,238.1 L632.8,237.7 L633.1,237.3 L633.5,237.0 L633.8,236.7 L634.1,236.3 L634.4,235.9 L634.6,235.6 L634.8,235.3 L635.0,235.1 L635.2,234.9 L635.4,234.5 L635.6,234.2 L635.7,234.0 L635.8,233.9 L635.9,233.8 L636.0,233.6 L636.0,233.3 L636.0,232.8 L636.0,232.3 L636.0,231.8 L636.0,231.1 L636.0,230.5 L636.0,230.0 L636.0,229.4 L635.8,228.7 L635.4,228.0 L634.8,227.2 L634.1,226.5 L633.3,225.7 L632.2,224.7 L631.1,223.9 L630.3,223.2 L628.9,222.1 L627.5,221.3 L626.6,220.7 L625.7,220.1 L624.9,219.7 L623.9,219.1 L622.9,218.5 L622.0,217.9 L621.0,217.4 L620.2,217.0 L619.5,216.6 L618.8,216.3 L618.0,215.9 L617.2,215.7 L616.5,215.4 L615.7,215.0 L615.0,214.8 L614.4,214.6 L613.8,214.5 L613.1,214.3 L612.2,214.0 L611.3,213.8 L610.7,213.7 L609.9,213.5 L609.2,213.3 L608.4,213.2 L607.5,213.2 L606.7,213.1 L605.9,213.0 L605.1,212.9 L604.3,212.7 L603.6,212.7 L603.0,212.7 L602.2,212.7 L601.4,212.7 L600.6,212.7 L599.8,212.7 L599.1,212.7 L598.4,212.7 L597.8,212.7 L597.1,212.7 L596.3,212.7 L595.5,212.7 L594.9,212.9 L594.1,213.1 L593.3,213.3 L592.7,213.5 L592.0,213.6 L591.1,214.0 L590.3,214.3 L589.4,214.6 L588.5,215.1 L587.7,215.4 L586.9,215.8 L586.1,216.1 L585.4,216.5 L584.7,216.9 L583.9,217.2 L583.3,217.5 L582.9,217.8 L582.4,218.2 L581.8,218.6 L581.3,219.1 L580.7,219.6 L580.1,220.2 L579.7,220.8 L579.2,221.3 L578.8,221.9 L578.4,222.4 L578.0,222.9 L577.7,223.5 L577.4,224.0 L577.2,224.5 L577.0,224.8 L576.8,225.4 L576.5,226.3 L576.2,227.1 L576.0,227.9 L575.8,228.8 L575.5,229.8 L575.3,230.7 L575.1,231.7 L574.7,232.7 L574.5,233.6 L574.4,234.4 L574.1,235.0 L573.9,235.8 L573.8,236.4 L573.7,236.9 L573.6,237.5 L573.6,238.2 L573.5,238.9 L573.4,239.9 L573.4,240.7 L573.3,241.5 L573.2,242.4 L573.1,243.4 L573.0,244.4 L572.9,245.4 L572.9,246.5 L572.8,247.4 L572.7,248.1 L572.7,249.0 L572.7,250.0 L572.6,251.1 L572.5,252.2 L572.4,253.5 L572.4,254.8 L572.4,255.9 L572.4,257.1 L572.3,258.2 L572.2,259.3 L572.2,260.2 L572.2,261.0 L572.2,261.6 L572.1,262.1 L572.0,262.6 L572.0,263.3 L572.0,263.9 L572.0,264.7 L572.0,265.5 L572.0,266.3 L572.0,267.2 L572.0,268.1 L572.0,269.1 L571.9,270.1 L571.9,271.0 L571.9,271.9 L571.9,272.5 L571.9,273.1 L571.9,274.0 L571.9,274.8 L571.9,275.7 L571.9,276.6 L571.9,277.2 L571.9,278.0 L571.8,278.7 L571.7,279.5 L571.6,280.4 L571.5,281.2 L571.5,282.0 L571.5,282.9 L571.5,283.6 L571.5,284.2 L571.5,285.0 L571.5,285.8 L571.5,286.6 L571.5,287.4 L571.5,288.2 L571.5,289.0 L571.5,289.7 L571.5,290.4 L571.5,291.2 L571.5,292.0 L571.5,292.6 L571.5,293.4 L571.5,294.2 L571.5,294.7 L571.5,295.4 L571.5,296.2 L571.5,296.9 L571.5,297.7 L571.5,298.4 L571.5,299.0 L571.5,299.7 L571.5,300.3 L571.5,301.0 L571.5,301.6 L571.5,302.2 L571.5,303.0 L571.5,303.6 L571.5,304.1 L571.5,304.8 L571.5,305.4 L571.5,306.0 L571.5,306.6 L571.5,307.1 L571.5,307.8 L571.5,308.3 L571.5,308.9 L571.5,309.5 L571.5,310.2 L571.5,310.8 L571.5,311.4 L571.5,311.9 L571.5,312.7 L571.5,313.5 L571.5,314.3 L571.5,315.4 L571.7,316.6 L572.1,317.7 L572.6,318.9 L573.1,320.1 L573.6,321.3 L574.1,322.2 L574.5,323.0 L575.0,323.7 L575.4,324.3 L575.7,324.7 L576.0,324.9 L576.5,325.2 L577.1,325.4 L577.7,325.6 L578.5,325.8 L579.4,326.1 L580.3,326.3 L581.3,326.6 L582.4,326.7 L583.5,326.8 L584.4,326.9 L585.2,327.0 L585.8,327.1 L586.4,327.1 L586.9,327.2 L587.5,327.3 L588.1,327.3 L588.6,327.4 L588.9,327.5 L589.3,327.5 L589.7,327.6 L590.1,327.8 L590.5,327.9 L590.8,328.0 L591.1,328.1 L591.5,328.3 L591.8,328.5 L592.1,328.7 L592.2,328.8 L592.4,329.0 L592.6,329.2 L592.7,329.3 L592.9,329.4 L592.9,329.5 L592.9,329.7 L592.9,329.9 L592.9,330.2 L592.9,330.7 L592.9,331.2 L592.9,331.6 L592.9,332.1 L592.9,332.6 L592.9,333.0 L592.8,333.5 L592.5,334.1 L592.1,334.5 L591.8,334.9 L591.3,335.3 L590.8,335.7 L590.2,336.0 L589.7,336.3 L589.2,336.6 L588.7,336.8 L588.3,337.0 L587.8,337.1 L587.2,337.3 L586.6,337.5 L585.9,337.5 L585.1,337.5 L584.2,337.5 L583.3,337.5 L582.5,337.5 L581.6,337.5 L580.8,337.5 L580.1,337.5 L579.5,337.5 L579.0,337.5 L578.6,337.5 L578.2,337.5 L577.8,337.5 L577.4,337.5 L577.0,337.5 L576.6,337.3 L576.2,337.1 L575.7,336.9 L575.3,336.7 L575.0,336.5 L574.4,336.3 L573.9,336.0 L573.4,335.7 L572.8,335.5 L572.4,335.3 L572.0,335.2 L571.5,335.0 L571.0,334.8 L570.4,334.6 L569.9,334.5 L569.4,334.3 L568.8,334.1 L568.2,333.9 L567.5,333.8 L567.0,333.6 L566.5,333.4 L565.8,333.3 L565.2,333.2 L564.7,333.1 L564.3,333.1 L563.9,333.0 L563.4,332.9 L562.9,332.9 L562.3,332.8 L561.8,332.7 L561.3,332.7 L560.7,332.6 L560.2,332.5 L559.5,332.5 L559.0,332.4 L558.5,332.3 L558.0,332.3 L557.6,332.2 L557.2,332.2 L556.7,332.1 L556.1,332.0 L555.5,331.9 L554.8,331.8 L554.1,331.7 L553.4,331.7 L552.5,331.7 L551.7,331.6 L550.9,331.4 L550.3,331.4 L549.7,331.4 L549.0,331.4 L548.5,331.4 L548.0,331.3 L547.4,331.2 L546.8,331.2 L546.1,331.2 L545.5,331.2 L545.0,331.2 L544.4,331.2 L543.8,331.1 L543.4,331.0 L542.9,331.0 L542.2,330.9 L541.7,330.8 L541.2,330.8 L540.7,330.8 L540.3,330.8 L539.8,330.8 L539.2,330.8 L538.5,330.8 L537.8,330.8 L537.0,330.8 L536.3,330.8 L535.5,330.8 L534.7,330.8 L533.9,330.8 L533.1,330.8 L532.3,330.8 L531.5,330.8 L530.9,330.8 L530.3,330.8 L529.5,330.8 L528.8,330.8 L528.0,330.8 L527.3,330.8 L526.7,330.8 L526.0,330.8 L525.4,330.8 L524.8,330.8 L524.3,330.8 L523.8,330.8 L523.3,330.8 L522.8,330.8 L522.5,330.8 L522.1,330.8 L521.6,330.8 L521.2,330.8 L520.8,330.8 L520.4,330.8 L519.9,330.8 L519.6,330.8 L519.3,330.8 L518.9,330.8 L518.5,330.7 L518.2,330.5 L517.9,330.4 L517.7,330.4 L517.5,330.2 L517.3,330.0 L517.1,329.8 L517.0,329.6 L516.8,329.5 L516.7,329.3 L516.7,329.1 L516.7,328.9 L516.7,328.8 L516.7,328.6 L516.7,328.4 L516.7,328.3 L516.7,328.2 L516.7,328.0 L516.8,327.8 L516.9,327.6 L517.2,327.3 L517.6,327.0 L518.0,326.8 L518.4,326.5 L518.8,326.2 L519.0,326.1 L519.3,325.9 L519.6,325.7 L519.8,325.6 L520.1,325.4 L520.4,325.2 L520.7,325.0 L521.0,324.9 L521.3,324.8 L521.6,324.7 L521.8,324.6 L522.1,324.4 L522.3,324.3 L522.6,324.2 L522.9,324.1 L523.1,324.0 L523.3,323.9 L523.5,323.8 L523.8,323.7 L524.0,323.6 L524.2,323.5 L524.5,323.4 L524.9,323.3 L525.2,323.1 L525.5,323.0 L525.8,322.9 L526.1,322.8 L526.4,322.7 L526.6,322.6 L526.9,322.6 L527.1,322.5 L527.4,322.5 L527.7,322.4 L527.9,322.3 L528.2,322.3 L528.5,322.2 L528.7,322.1 L529.0,322.1 L529.3,322.1 L529.7,322.1 L530.1,322.0 L530.4,321.9 L530.7,321.9 L531.2,321.8 L531.6,321.7 L531.9,321.6 L532.4,321.5 L532.9,321.3 L533.4,321.2 L533.9,321.0 L534.5,320.9 L535.1,320.8 L535.8,320.6 L536.3,320.3 L536.9,320.1 L537.5,320.0 L538.0,319.8 L538.4,319.6 L538.7,319.4 L539.1,319.3 L539.7,319.1 L540.0,319.0 L540.2,318.9 L540.5,318.7 L540.7,318.7 L540.9,318.6 L541.2,318.5 L541.5,318.4 L541.6,318.4 L541.8,318.3 L542.1,318.2 L542.4,318.1 L542.5,318.0 L542.7,317.9 L543.0,317.8 L543.2,317.6 L543.4,317.5 L543.5,317.3 L543.7,317.1 L543.9,316.9 L544.1,316.7 L544.3,316.4 L544.5,316.0 L544.7,315.7 L544.8,315.3 L544.9,314.8 L545.0,314.3 L545.2,313.8 L545.3,313.1 L545.5,312.4 L545.7,311.6 L545.9,310.9 L546.1,310.2 L546.2,309.4 L546.3,308.6 L546.4,308.0 L546.4,307.3 L546.5,306.7 L546.7,306.0 L546.7,305.6 L546.7,305.2 L546.8,304.6 L546.8,304.0 L546.9,303.4 L547.0,302.7 L547.1,301.9 L547.4,301.1 L547.6,300.3 L547.8,299.4 L548.1,298.3 L548.3,297.2 L548.5,296.1 L548.8,295.0 L549.0,294.2 L549.2,293.2 L549.4,292.1 L549.6,291.1 L549.8,290.2 L549.9,289.2 L550.0,288.2 L550.0,287.2 L550.2,286.2 L550.3,285.3 L550.4,284.2 L550.5,283.1 L550.6,282.2 L550.8,281.3 L550.8,280.5 L550.8,279.6 L550.9,278.7 L551.0,277.7 L551.2,276.6 L551.3,275.5 L551.5,274.5 L551.6,273.4 L551.8,272.1 L552.0,270.8 L552.1,269.5 L552.3,268.4 L552.5,267.3 L552.6,266.1 L552.7,265.2 L552.9,264.4 L553.0,263.3 L553.1,262.4 L553.3,261.3 L553.3,260.2 L553.3,259.2 L553.4,258.2 L553.5,257.2 L553.5,256.3 L553.5,255.1 L553.5,254.1 L553.5,253.0 L553.5,251.9 L553.5,251.2 L553.5,250.3 L553.5,249.4 L553.5,248.6 L553.5,247.8 L553.5,246.9 L553.5,246.1 L553.5,245.4 L553.5,244.7 L553.5,244.1 L553.5,243.4 L553.5,242.6 L553.5,241.9 L553.5,241.2 L553.5,240.7 L553.5,240.2 L553.5,239.7 L553.5,239.3 L553.5,238.8 L553.4,238.4 L553.4,238.0 L553.2,237.5 L553.1,237.0 L553.0,236.6 L552.8,236.0 L552.7,235.5 L552.6,235.0 L552.4,234.5 L552.3,234.0 L552.3,233.6 L552.1,233.3 L551.9,232.8 L551.7,232.2 L551.5,231.7 L551.2,231.2 L550.9,230.7 L550.6,230.2 L550.3,229.7 L550.0,229.3 L549.6,228.8 L549.2,228.3 L548.8,227.9 L548.4,227.6 L548.0,227.2 L547.5,226.6 L546.9,226.2 L546.5,225.7 L546.0,225.2 L545.5,224.8 L545.0,224.3 L544.4,223.9 L543.9,223.5 L543.5,223.1 L543.1,222.7 L542.6,222.3 L542.1,221.9 L541.8,221.6 L541.4,221.3 L540.9,220.9 L540.4,220.4 L539.7,219.8 L539.2,219.4 L538.6,218.8 L538.1,218.3 L537.5,217.8 L536.9,217.3 L536.5,216.7 L536.0,216.3 L535.5,216.0 L535.2,215.8 L534.8,215.5 L534.2,215.0 L533.8,214.7 L533.4,214.4 L532.9,214.1 L532.3,213.9 L531.7,213.6 L531.3,213.3 L530.7,213.1 L530.2,212.8 L529.6,212.6 L529.0,212.4 L528.7,212.2 L528.3,212.1 L527.9,212.1 L527.4,211.9 L526.9,211.8 L526.4,211.7 L525.9,211.5 L525.3,211.3 L524.6,211.2 L524.0,211.0 L523.3,210.9 L522.5,210.8 L521.7,210.7 L520.9,210.6 L520.0,210.5 L519.3,210.4 L518.6,210.3 L517.7,210.2 L516.7,210.2 L515.9,210.1 L515.1,210.0 L514.3,210.0 L513.5,210.0 L512.8,210.0 L512.2,210.0 L511.6,210.0 L511.0,210.0 L510.5,210.0 L510.0,210.0 L509.7,210.0 L509.2,210.0 L508.6,210.0 L508.1,210.0 L507.5,210.0 L506.8,210.0 L506.2,210.0 L505.5,210.0 L504.8,210.0 L504.0,210.0 L503.2,210.0 L502.4,210.0 L501.5,210.1 L500.7,210.2 L500.2,210.3 L499.6,210.4 L498.9,210.5 L498.2,210.7 L497.6,210.8 L496.8,210.9 L496.0,211.1 L495.3,211.2 L494.4,211.4 L493.6,211.5 L493.0,211.6 L492.4,211.7 L491.7,211.8 L491.2,212.0 L490.8,212.1 L490.3,212.2 L489.8,212.4 L489.3,212.5 L488.8,212.5 L488.3,212.6 L487.9,212.7 L487.5,212.8 L487.1,213.0 L486.7,213.1 L486.3,213.2 L486.0,213.3 L485.7,213.4 L485.3,213.6 L485.0,213.7 L484.7,213.9 L484.3,214.2 L483.9,214.4 L483.4,214.7 L482.9,215.1 L482.5,215.5 L482.1,215.9 L481.7,216.4 L481.1,216.9 L480.6,217.5 L480.2,218.0 L479.9,218.4 L479.6,218.8 L479.4,219.1 L479.1,219.6 L478.8,220.0 L478.5,220.5 L478.1,221.0 L477.8,221.4 L477.6,221.8 L477.4,222.1 L477.2,222.3 L477.1,222.5 L477.0,222.7 L476.9,222.9 L476.9,223.1 L476.9,223.2 L476.9,223.4 L476.9,223.5 L476.9,223.7 L476.9,224.0 L476.8,224.4 L476.8,225.0 L476.7,225.5 L476.6,226.1 L476.6,226.7 L476.6,227.4 L476.5,228.0 L476.5,228.7 L476.5,229.3 L476.5,229.8 L476.5,230.2 L476.5,230.8 L476.5,231.4 L476.5,232.0 L476.5,232.6 L476.5,233.3 L476.5,233.8 L476.5,234.4 L476.6,235.0 L476.7,235.6 L476.8,236.1 L476.9,236.7 L477.0,237.2 L477.0,237.5 L477.0,237.9 L477.0,238.4 L477.0,238.8 L477.0,239.3 L477.0,239.8 L477.0,240.4 L477.0,240.9 L477.0,241.4 L477.0,241.9 L477.0,242.5 L477.0,243.0 L477.0,243.4 L477.0,243.9 L477.0,244.4 L476.9,244.8 L476.7,245.3 L476.5,245.9 L476.3,246.5 L476.1,247.2 L475.9,247.8 L475.6,248.5 L475.2,249.3 L474.9,250.1 L474.4,250.9 L474.0,251.8 L473.5,252.8 L473.1,253.7 L472.7,254.4 L472.3,255.1 L471.9,255.9 L471.3,256.7 L470.7,257.6 L470.3,258.3 L469.8,258.9 L469.3,259.6 L468.8,260.3 L468.4,260.9 L468.0,261.3 L467.6,261.7 L467.3,262.1 L466.9,262.4 L466.5,262.5 L466.1,262.7 L465.6,263.0 L465.0,263.2 L464.3,263.5 L463.7,263.7 L462.9,263.9 L462.0,264.2 L461.2,264.4 L460.3,264.6 L459.4,264.9 L458.4,265.0 L457.5,265.0 L456.8,265.0 L456.0,265.0 L455.3,265.0 L454.8,265.0 L454.2,265.0 L453.6,264.8 L453.1,264.5 L452.6,264.0 L452.1,263.3 L451.6,262.7 L451.2,262.0 L450.7,261.2 L450.4,260.1 L450.0,259.1 L449.7,258.0 L449.5,257.0 L449.3,256.0 L448.9,254.3 L448.6,252.7 L448.4,251.3 L448.2,249.6 L448.2,247.6 L448.2,245.6 L448.2,244.0 L448.2,242.1 L448.2,239.8 L448.2,237.8 L448.3,235.6 L448.7,233.4 L449.2,231.7 L449.7,229.7 L450.3,226.8 L450.7,224.3 L451.2,222.4 L451.8,220.1 L452.4,217.8 L453.0,215.7 L453.6,214.0 L454.1,212.5 L454.7,210.8 L455.2,209.1 L455.8,207.6 L456.3,206.1 L456.7,205.2 L457.1,204.2 L457.8,203.0 L458.6,201.5 L459.4,200.3 L460.1,199.3 L460.9,198.0 L461.8,196.8 L462.7,195.6 L463.5,194.5 L464.2,193.6 L464.9,192.9 L465.5,192.2 L465.9,191.7 L466.2,191.4 L466.5,191.3 L466.8,191.1 L467.0,190.8 L467.3,190.5 L467.7,190.2 L468.0,190.0 L468.4,189.7 L468.8,189.5 L469.2,189.3 L469.6,189.1 L470.0,188.9 L470.4,188.8 L470.6,188.8 L470.8,188.8 L471.2,188.8 L471.5,188.8 L471.8,188.8 L472.1,188.8 L472.3,188.8 L472.6,188.9 L472.9,189.2 L473.2,189.7 L473.5,190.2 L473.8,190.7 L474.1,191.5 L474.3,192.2 L474.5,192.8 L474.7,193.5 L474.8,194.4 L474.8,195.5 L474.9,196.9 L474.9,198.2 L474.9,199.4 L474.9,200.7 L474.9,201.8 L474.9,203.0 L474.9,204.1 L474.9,205.4 L474.9,206.5 L474.9,207.4 L474.9,208.2 L474.8,209.0 L474.7,209.9 L474.6,210.7 L474.5,211.6 L474.3,212.5 L474.2,213.3 L474.2,214.2 L474.1,215.1 L474.0,215.9 L473.9,216.8 L473.8,217.8 L473.6,218.7 L473.5,219.8 L473.5,220.6 L473.3,221.5 L473.1,222.5 L473.0,223.5 L472.8,224.6 L472.5,225.8 L472.3,226.8 L472.0,227.7 L471.8,228.8 L471.7,230.0 L471.5,231.3 L471.3,232.6 L471.0,234.2 L470.7,235.5 L470.6,236.3 L470.5,237.5 L470.3,239.1 L470.0,241.0 L469.8,242.8 L469.6,244.2 L469.5,245.9 L469.3,247.5 L469.2,249.2 L469.1,250.9 L468.9,252.6 L468.8,254.2 L468.8,255.8 L468.7,257.2 L468.5,258.6 L468.5,259.8 L468.5,260.8 L468.4,262.0 L468.3,263.4 L468.3,264.9 L468.2,266.2 L468.1,267.5 L467.9,268.8 L467.8,270.1 L467.6,271.8 L467.5,273.6 L467.5,274.8 L467.3,276.5 L467.2,278.3 L467.1,279.9 L466.9,281.8 L466.6,284.0 L466.3,286.4 L466.0,289.2 L465.6,292.1 L465.1,295.1 L464.6,298.2 L464.1,301.2 L463.6,304.3 L463.1,307.2 L462.7,310.1 L462.2,313.0 L461.8,315.3 L461.5,317.6 L461.0,320.6 L460.5,324.0 L460.1,327.7 L459.8,331.5 L459.6,335.1 L459.3,338.7 L459.0,342.3 L458.7,345.8 L458.5,348.4 L458.3,351.0 L458.1,353.6 L458.0,355.4 L457.8,357.2 L457.8,359.1 L457.7,361.1 L457.6,362.7 L457.6,365.1 L457.6,367.1 L457.6,368.6 L457.6,370.9 L457.6,372.9 L457.6,374.3 L457.6,375.9 L457.6,377.5 L457.6,378.9 L457.6,380.3 L457.6,383.8 L457.6,385.0 L457.6,386.6 L457.6,387.9 L457.7,389.3 L457.9,390.8 L458.2,392.3 L458.6,394.1 L459.1,396.0 L459.5,397.3 L460.1,398.8 L460.6,400.3 L460.9,401.2 L461.6,402.7 L462.3,404.4 L462.9,405.8 L463.5,407.4 L464.5,409.3 L465.4,411.2 L466.3,412.9 L467.0,414.4 L467.6,415.7 L468.4,417.2 L469.2,418.5 L469.9,419.6 L470.5,420.6 L471.1,421.5 L471.6,422.3 L472.1,423.0 L472.7,423.9 L473.2,424.6 L473.9,425.4 L474.7,426.3 L475.4,427.1 L476.2,427.9 L477.2,428.7 L478.2,429.3 L479.2,430.1 L480.2,430.8 L481.2,431.4 L482.1,432.0 L483.0,432.5 L483.8,432.9 L484.8,433.5 L485.9,434.1 L487.1,434.7 L488.0,435.5 L488.9,436.1 L489.8,436.6 L490.7,437.1 L491.5,437.5 L492.3,438.1 L493.0,438.6 L493.6,438.9 L494.1,439.2 L494.6,439.4 L495.2,439.7 L495.8,440.0 L496.6,440.3 L497.4,440.6 L498.2,440.8 L499.1,441.0 L500.0,441.3 L500.9,441.5 L501.7,441.8 L502.5,442.0 L503.1,442.2 L503.9,442.4 L504.5,442.6 L504.9,442.7 L505.4,442.9 L506.1,443.1 L506.7,443.3 L507.4,443.6 L508.0,443.8 L508.7,444.0 L509.5,444.2 L510.3,444.5 L511.1,444.7 L512.0,444.9 L512.9,445.0 L513.8,445.2 L514.7,445.3 L515.5,445.3 L516.3,445.4 L517.5,445.5 L519.0,445.6 L520.3,445.7 L521.4,445.8 L522.6,446.0 L523.9,446.1 L525.0,446.2 L526.2,446.3 L527.5,446.6 L528.7,446.7 L529.8,446.8 L530.6,446.9 L531.4,447.0 L532.5,447.2 L533.6,447.3 L534.5,447.4 L535.3,447.5 L536.3,447.6 L537.1,447.6 L537.9,447.6 L538.7,447.6 L539.5,447.6 L540.3,447.6 L541.1,447.6 L542.0,447.6 L542.6,447.6 L543.2,447.6 L544.0,447.6 L544.9,447.6 L545.8,447.6 L546.4,447.6 L547.2,447.6 L548.0,447.6 L548.9,447.6 L549.9,447.6 L550.8,447.6 L551.8,447.6 L552.7,447.6 L553.6,447.6 L554.3,447.6 L555.0,447.6 L555.9,447.6 L556.9,447.6 L557.7,447.5 L558.4,447.4 L559.0,447.2 L559.5,447.0 L560.1,446.9 L560.5,446.7 L560.9,446.5 L561.3,446.3 L561.7,446.2 L562.0,446.0 L562.3,445.9 L562.7,445.7 L563.2,445.4 L563.7,445.1 L564.3,444.7 L564.9,444.4 L565.3,444.1 L565.9,443.8 L566.4,443.5 L566.8,443.2 L567.2,442.9 L567.6,442.6 L567.9,442.4 L568.0,442.3 L568.2,442.1 L568.3,441.9 L568.5,441.8 L568.7,441.6 L568.8,441.4 L568.8,441.2 L568.8,441.1 L568.8,440.8 L568.8,440.3 L568.8,439.8 L568.8,439.4 L568.7,438.9 L568.3,438.3 L567.8,437.6 L567.3,437.0 L566.9,436.5 L566.2,435.7 L565.6,435.1 L564.8,434.7 L564.0,434.3 L563.2,433.8 L562.3,433.3 L561.2,432.8 L560.0,432.5 L559.0,432.2 L558.0,431.9 L556.8,431.6 L555.6,431.4 L554.4,431.2 L553.3,431.0 L552.1,430.9 L551.3,430.9 L550.4,430.8 L549.6,430.6 L548.8,430.6 L548.0,430.6 L547.3,430.6 L546.6,430.6 L545.8,430.6 L545.2,430.6 L544.6,430.6 L543.8,430.6 L542.9,430.6 L542.0,430.6 L541.0,430.6 L540.0,430.6 L538.9,430.6 L537.7,430.6 L536.8,430.7 L535.9,430.9 L535.0,431.0 L534.1,431.2 L533.3,431.4 L532.7,431.6 L532.1,431.7 L531.5,431.8 L531.0,432.0 L530.3,432.2 L529.8,432.3 L529.2,432.4 L528.7,432.6 L528.3,432.7 L527.8,432.8 L527.5,432.9 L527.3,433.0 L527.0,433.1 L526.8,433.2 L526.7,433.4 L526.7,433.5 L526.7,433.7 L526.6,433.8 L526.6,434.0 L526.6,434.2 L526.6,434.5 L526.6,434.8 L526.6,435.2 L526.6,435.7 L526.6,436.4 L526.6,437.0 L526.6,437.7 L526.6,438.3 L526.6,439.1 L526.6,439.9 L526.7,440.7 L526.9,441.5 L527.1,442.2 L527.3,442.8 L527.5,443.4 L527.7,443.9 L527.8,444.4 L528.0,444.9 L528.3,445.5 L528.5,445.9 L528.9,446.2 L529.3,446.6 L529.6,447.0 L529.9,447.3 L530.3,447.6 L530.7,447.9 L531.1,448.1 L531.4,448.3 L531.9,448.5 L532.4,448.7 L532.8,448.8 L533.3,449.0 L534.0,449.2 L534.6,449.5 L535.3,449.7 L536.0,449.8 L536.8,449.9 L537.6,450.1 L538.6,450.3 L539.4,450.4 L540.1,450.6 L540.7,450.7 L541.3,450.8 L541.8,450.9 L542.3,451.0 L543.1,451.1 L543.7,451.2 L544.3,451.3 L545.0,451.3 L545.6,451.3 L546.3,451.3 L547.1,451.3 L547.9,451.3 L548.9,451.3 L549.7,451.3 L550.6,451.3 L551.7,451.3 L552.4,451.3 L553.1,451.3 L554.0,451.3 L555.1,451.3 L556.2,451.3 L557.3,451.3 L558.4,451.3 L559.5,451.3 L560.8,451.3 L562.1,451.3 L563.2,451.3 L564.3,451.3 L565.6,451.3 L566.6,451.3 L567.4,451.2 L568.4,451.0 L569.5,450.8 L570.3,450.6 L571.4,450.3 L572.6,450.1 L573.7,449.8 L574.9,449.6 L576.1,449.3 L577.1,449.1 L578.4,448.9 L579.6,448.8 L580.7,448.7 L581.8,448.6 L582.8,448.4 L583.6,448.3 L584.7,448.1 L585.8,447.9 L586.9,447.8 L588.0,447.5 L589.2,447.2 L590.3,447.0 L591.4,446.7 L592.5,446.5 L593.5,446.1 L594.6,445.7 L595.7,445.5 L596.4,445.3 L597.0,445.1 L597.7,445.0 L598.5,444.9 L599.4,444.7 L600.2,444.5 L601.0,444.2 L601.8,443.9 L602.6,443.6 L603.6,443.3 L604.4,443.1 L605.2,442.8 L606.2,442.4 L607.2,442.1 L607.7,441.8 L608.4,441.5 L609.3,441.2 L610.3,440.9 L611.2,440.6 L612.2,440.3 L613.0,439.9 L613.8,439.5 L614.8,439.0 L615.7,438.5 L616.5,438.1 L617.4,437.6 L618.5,436.8 L619.3,436.1 L620.0,435.6 L621.2,434.5 L622.3,433.4 L622.9,432.8 L623.8,431.9 L624.9,430.7 L626.0,429.6 L627.1,428.7 L628.3,427.6 L629.7,426.2 L630.9,425.0 L631.6,424.3 L632.6,423.3 L633.6,422.4 L634.4,421.8 L635.2,421.1 L636.0,420.2 L636.9,419.4 L637.8,418.5 L638.6,417.6 L639.4,416.7 L640.1,415.8 L640.9,415.1 L641.6,414.2 L642.2,413.2 L642.9,412.2 L643.5,411.3 L643.8,410.3 L644.1,409.6 L644.4,408.8 L644.8,407.7 L645.1,406.7 L645.5,405.4 L645.8,404.1 L646.1,403.0 L646.4,401.7 L646.6,400.2 L646.9,398.9 L647.2,397.4 L647.4,396.0 L647.6,394.5 L647.7,393.1 L647.8,392.1 L647.9,391.0 L648.0,389.7 L648.0,388.4 L648.1,386.9 L648.3,385.5 L648.3,384.0 L648.3,382.5 L648.4,381.2 L648.5,379.7 L648.5,378.2 L648.5,376.8 L648.7,375.3 L648.8,373.9 L648.8,372.7 L648.8,371.1 L648.8,369.4 L648.8,367.7 L648.8,365.7 L648.8,364.3 L648.8,362.9 L648.8,360.8 L648.8,358.6 L648.8,357.0 L648.8,355.6 L648.8,354.2 L648.8,352.8 L648.8,351.4 L648.8,350.4 L648.8,349.4 L648.8,348.2 L648.8,346.9 L648.8,345.8 L648.8,344.7 L648.8,343.4 L648.8,342.2 L648.8,341.1 L648.8,339.6 L648.7,338.1 L648.4,336.7 L648.3,335.1 L648.3,333.5 L648.3,332.4 L648.2,331.1 L648.0,329.1 L648.0,327.1 L648.0,325.5 L648.0,323.4 L648.0,321.4 L647.8,319.1 L647.7,316.9 L647.6,314.9 L647.6,312.9 L647.6,311.4 L647.6,309.6 L647.6,307.6 L647.6,306.1 L647.5,305.1 L647.4,303.7 L647.3,302.3 L647.1,300.8 L646.8,298.8 L646.6,296.7 L646.4,295.0 L646.3,293.1 L646.1,291.0 L646.0,289.3 L646.0,287.9 L646.0,286.3 L646.0,284.5 L646.0,283.1 L646.0,281.5 L646.0,279.8 L646.0,278.4 L646.0,276.7 L646.0,275.1 L646.0,273.4 L646.0,271.9 L646.0,270.4 L646.1,268.4 L646.4,266.3 L646.7,265.0 L646.9,263.7 L647.2,262.1 L647.4,261.0 L647.6,259.9 L647.8,258.5 L648.1,257.2 L648.4,255.7 L648.5,254.3 L648.7,252.9 L648.8,251.6 L648.9,250.3 L649.1,249.0 L649.1,247.3 L649.1,245.9 L649.2,244.8 L649.3,243.7 L649.3,242.5 L649.3,240.9 L649.3,239.4 L649.3,237.6 L649.3,235.9 L649.3,234.5 L649.3,232.8 L649.3,230.8 L649.3,228.7 L649.4,226.8 L649.7,224.7 L650.0,222.9 L650.3,221.1 L650.7,219.1 L651.0,217.9 L651.5,216.4 L652.0,214.6 L652.6,212.7 L653.4,210.7 L654.0,209.3 L654.9,207.2 L655.5,205.5 L656.0,204.3 L656.7,202.9 L657.2,201.7 L657.7,200.6 L658.1,199.7 L658.5,198.9 L658.8,198.3 L659.4,197.5 L660.0,196.5 L660.6,195.7 L661.2,195.0 L661.9,194.4 L662.6,193.7 L663.3,193.0 L664.2,192.4 L665.1,191.9 L666.2,191.4 L667.3,191.1 L668.2,190.8 L669.1,190.7 L669.9,190.7 L670.8,190.7 L671.7,190.7 L672.7,190.7 L673.7,190.8 L674.6,191.4 L675.3,192.1 L676.1,193.0 L676.9,194.1 L677.6,195.3 L678.3,196.4 L678.7,197.7 L679.1,199.5 L679.5,201.0 L679.6,201.9 L679.8,203.4 L679.9,204.9 L679.9,206.3 L679.9,207.9 L679.9,209.5 L679.9,211.0 L679.7,212.5 L679.4,214.1 L678.9,215.2 L678.4,216.3 L677.9,217.4 L677.4,218.5 L677.0,219.5 L676.6,220.3 L676.3,220.9 L675.8,221.7 L675.4,222.6 L674.9,223.5 L674.5,224.3 L674.1,225.2 L673.7,226.1 L673.2,226.9 L672.9,227.7 L672.5,228.5 L672.2,229.3 L672.0,230.1 L671.8,230.6 L671.6,231.1 L671.4,231.7 L671.2,232.4 L671.0,233.3 L670.8,234.2 L670.7,235.2 L670.5,236.2 L670.3,237.3 L670.2,238.4 L670.1,239.5 L670.0,240.8 L669.8,242.0 L669.7,243.1 L669.6,243.9 L669.5,244.8 L669.4,245.7 L669.3,246.7 L669.1,247.6 L668.9,248.6 L668.6,249.5 L668.4,250.3 L668.1,251.2 L667.7,252.0 L667.5,252.7 L667.2,253.2 L666.9,253.7 L666.7,254.1 L666.6,254.3 L666.5,254.5 L666.4,254.7 L666.2,254.9 L666.1,255.1 L666.0,255.2 L665.7,255.3 L665.5,255.5 L665.3,255.7 L665.0,255.9 L664.6,256.1 L664.1,256.3 L663.6,256.5 L663.2,256.8 L662.8,257.0 L662.3,257.3 L661.8,257.5 L661.4,257.7 L661.2,257.9 L661.0,258.0 L660.7,258.0 L660.4,258.1 L660.1,258.1 L659.7,258.1 L659.2,257.8 L658.7,257.3 L658.1,256.7 L657.7,256.2 L657.1,255.7 L656.6,255.1 L656.2,254.5 L655.8,253.9 L655.3,253.2 L655.0,252.5 L654.7,251.8 L654.3,251.0 L654.0,250.2 L653.6,249.1 L653.2,247.6 L652.9,246.5 L652.8,245.6 L652.6,244.7 L652.4,243.9 L652.3,242.8 L652.1,241.9 L651.9,240.9 L651.8,239.9 L651.8,239.0 L651.6,238.0 L651.5,237.0 L651.5,236.1 L651.4,235.1 L651.3,234.2 L651.2,233.1 L650.9,232.0 L650.8,231.2 L650.7,230.3 L650.4,229.2 L650.0,227.9 L649.8,227.0 L649.5,226.2 L649.1,225.2 L648.8,224.1 L648.4,223.0 L648.0,221.5 L647.4,219.7 L647.0,218.0 L646.6,216.3 L646.2,214.5 L646.0,213.3 L645.7,212.2 L645.2,210.7 L644.8,209.2 L644.4,207.7 L643.9,206.2 L643.7,204.9 L643.3,203.6 L642.9,202.1 L642.4,200.3 L641.9,198.4 L641.5,196.6 L641.0,194.6 L640.4,192.4 L640.0,190.5 L639.5,188.8 L639.1,187.1 L638.7,185.4 L638.4,183.4 L638.1,181.7 L637.7,180.2 L637.3,178.7 L637.0,177.6 L636.8,176.4 L636.5,175.1 L636.2,173.9 L635.8,172.8 L635.6,171.7 L635.4,170.8 L635.3,170.1 L635.1,169.3 L635.0,168.6 L635.0,168.0 L635.0,167.5 L635.0,166.8 L635.0,166.2 L635.0,165.5 L635.0,164.9 L635.0,164.1 L635.0,163.3 L635.0,162.5 L635.0,161.8 L635.0,161.1 L635.0,160.2 L635.0,159.3 L635.0,158.3 L635.0,157.4 L635.0,156.1 L635.0,154.9 L635.0,153.7 L635.0,152.4 L634.9,151.1 L634.7,149.6 L634.6,148.2 L634.4,147.0 L634.2,146.0 L634.0,145.2 L633.7,144.1 L633.4,143.0 L633.0,142.1 L632.5,141.2 L632.2,140.4 L631.8,139.7 L631.3,139.0 L630.7,138.3 L630.3,137.6 L629.7,137.0 L629.1,136.4 L628.6,135.9 L628.1,135.4 L627.6,135.1 L627.0,134.7 L626.3,134.3 L625.7,133.8 L625.0,133.5 L624.4,133.2 L623.8,133.0 L623.2,132.8 L622.8,132.7 L622.5,132.6 L622.1,132.6 L621.7,132.6 L621.4,132.6 L621.3,132.6 L621.1,132.6 L620.8,132.6 L620.6,132.6 L620.4,132.6 L620.3,132.6 L620.1,132.6 L619.9,132.6 L619.7,132.6" stroke="#FBBF24" stroke-width="3" fill="none" stroke-linecap="round" stroke-linejoin="round" opacity="1"
    stroke-dasharray="1683.2" stroke-dashoffset="1683.2">
    <animate id="draw3" attributeName="stroke-dashoffset" from="1683.2" to="0" dur="1s" begin="2.0s; reverse3.end + 2s" fill="freeze" calcMode="spline" keySplines="0.4 0 0.6 1" />
    <animate id="reverse3" attributeName="stroke-dashoffset" from="0" to="-1683.2" dur="1s" begin="draw3.end + 2s" fill="freeze" calcMode="spline" keySplines="0.4 0 0.6 1" />
    <animate attributeName="stroke" values="#FBBF24;#1E3A8A;#EF4444;#0EA5E9;#FBBF24" dur="3s" repeatCount="indefinite" />
  </path>
</svg>