<svg id="icons" enable-background="new 0 0 30 30" height="512" viewBox="0 0 30 30" width="512" xmlns="http://www.w3.org/2000/svg"><g fill="#4eb8ff"><path d="m15.5 12.5c-1.7 0-3 1.3-3 3s1.3 3 3 3 3-1.3 3-3c0-1.6-1.3-3-3-3zm0 5c-1.1 0-2-.9-2-2s.9-2 2-2 2 .9 2 2-.9 2-2 2z"/><path d="m11.7 4.2c-.1-.2-.2-.3-.4-.5s-.5-.2-.7 0-.2.5 0 .7c.1.1.2.2.3.3.3.5 1.2 0 .8-.5z"/><path d="m11.6 5.8v.2c.1.2.2.4.2.7.1.6 1.1.4 1-.2-.1-.3-.2-.5-.2-.8-.2-.6-1-.4-1 .1z"/><path d="m12 8.1c0 .2 0 .5-.1.7-.1.6.9.8 1 .1.1-.2.1-.5.1-.8s-.2-.5-.5-.5-.5.2-.5.5z"/><path d="m24.5 19.5c-.3 0-.6 0-.8-.1-.6-.2-.9.7-.3 1 .4.1.7.2 1.1.2.6 0 .7-1.1 0-1.1z"/><path d="m24.1 14.5h.4c.3 0 .5-.2.5-.5s-.2-.5-.5-.5c-.2 0-.3 0-.5 0-.6.1-.5 1.1.1 1z"/><path d="m12.2 10c-.3-.1-.5 0-.7.2 0 0 0 .1-.1.1.3 0 .6.1 1 .1.1-.2 0-.3-.2-.4z"/><path d="m22 14.6c-.1.1-.2.3-.3.4.2.3.4.5.7.8.1-.2.2-.4.4-.5.2-.2.2-.5 0-.7-.3-.2-.7-.2-.8 0z"/><path d="m22.4 18.3c-.1-.2-.2-.5-.3-.7-.3.1-.6.2-.9.4.1.3.2.6.4.9.2.6 1.2 0 .8-.6 0 .1 0 .1 0 0z"/><path d="m8.9 12.9c-.6.3-.1 1.2.4.9.1-.1.2-.1.4-.2 0-.4-.1-.7-.2-1.1-.2.2-.4.3-.6.4z"/><path d="m4.5 13.1c-.1 0-.2-.1-.3-.1-.2-.1-.6 0-.7.2-.1.3 0 .6.2.7s.3.1.4.1c.6.3 1-.6.4-.9z"/><path d="m7.2 13.5c-.3 0-.6 0-.9 0-.3 0-.5.2-.5.5s.2.5.5.5h.3c.3 0 .5 0 .8-.1.5 0 .4-1-.2-.9z"/></g><path d="m25.1 16.9c.4-.2 1.1-.4 1.9-.4.3 0 .5-.2.5-.5s-.2-.5-.5-.5c-1.9 0-2.9.8-3.3 1.1-.2 0-.4 0-.6-.1-.5-.4-1.6-1.3-1.8-2.1-.3-1.7.1-3.1.2-3.7.4.1.8.2 1.1.2.8 1.5 2.6 1.6 2.8 1.6.7 0 .7-1 0-1 0 0-1 0-1.6-.6 1.3-.2 1.9-1 1.9-1 .2-.2.1-.5-.1-.7-.1-.2-.4-.2-.6 0 0 0-.9 1.1-3.1.5.4-.7 1.1-1.5 2.3-2.3.2-.1.3-.4.2-.7-.1-.2-.4-.3-.7-.2-2.4 1.4-3 3.3-3.2 4-.8.2-1.9.3-2.2 0-.8-.7-.8-1.4-.8-1.5.1-.2.1-.4.2-.6.8-.2 2.8-.9 2.8-2.4 0-.3-.2-.5-.5-.5s-.5.2-.5.5c0 .7-1 1.1-1.7 1.4.1-2.5-1.3-4.5-1.4-4.6-.2-.2-.5-.3-.7-.1s-.3.5-.1.7c0 0 .8 1.2 1.1 2.8-1.4-.3-2.2-2.2-2.2-2.2-.1-.3-.4-.4-.6-.3-.3.1-.4.4-.3.6 0 .1 1.1 2.7 3.2 2.9 0 .5 0 1.1-.2 1.6-.3.3-1.5 1.3-2.6 1.5-2.8.5-4.6-.6-4.6-.7-.5-.3-1-.8-1.6-1.2 1.4-2.2.7-4.4.7-4.6-.1-.2-.4-.4-.6-.3-.3.1-.5.4-.4.7 0 0 .5 1.8-.4 3.5-.9-1-1.6-2-1.6-2.7 0-.3-.2-.5-.5-.5s-.5.2-.5.5c0 .7.3 1.4.8 2.1-1.3 0-2-.5-2-.5-.2-.2-.5-.1-.7.1s-.1.5.1.7c0 0 .9.7 2.6.7.2 0 .5 0 .8-.1 1 1.1 2.2 2 2.5 2.3.2.4 1.2 2.2 1.2 3.9 0 1.6-1.7 3.1-2 3.4-.1 0-.1 0-.2.1-1.8 0-3.2-1-3.2-1.1-.2-.2-.5-.1-.7.1s-.1.5.1.7c.1 0 1 .7 2.3 1-1.1.7-2.4 1.7-3.4 3.3-.4.5.5 1.1.8.6.5-.8 1.2-1.5 1.8-2-.4 2.4.3 3.9.4 3.9.3.6 1.2.1.9-.5 0-.1-.9-1.7 0-4.4.8-.5 1.4-.8 1.6-.9 1.1 0 3 .2 3.6.9.6.6.8 1.6.8 2.2-2.8.2-3.9 2.1-3.9 2.2-.1.2 0 .5.2.7.2.1.5 0 .7-.2 0-.1.8-1.5 3-1.7v1.3c-1.2 1-1.2 2.6-.9 3.3.2.6 1.1.3 1-.3 0-.1-.3-1.2.3-2 .1.2.2.3.3.4.6.8 1.6 1.2 2.9 1.2.3 0 .5-.2.5-.5s-.2-.5-.5-.5c-1 0-1.7-.3-2.1-.8-.6-.8-.5-2.1-.4-2.4.5-.5 1.9-1.7 2.9-1.7.9-.1 1.7.2 2.4.4 0 1 .1 3.6 2 4.5.6.3 1-.6.4-.9-1.1-.6-1.4-2.1-1.4-3.1l2.9 2.9c.5.5 1.2-.3.7-.7l-1.5-1.5c.4-.1 1.1-.2 1.9.3.5.3 1.1-.5.5-.9-1.4-.8-2.6-.5-3.2-.2l-.6-.6c-.1-.4-.4-1.7.3-2.4.8-.8 2.3-.9 2.3-.9s2.7 0 3.6 1.7c.3.6 1.2.1.9-.4-.9-.9-1.8-1.5-2.7-1.8zm-5.1.8c-.7.7-.8 1.7-.7 2.4-.8-.3-1.9-.7-3-.6s-2.2.9-2.9 1.5c-.1-.7-.4-1.7-1-2.3-.7-.7-2.1-1-3.2-1.1.7-.8 1.6-2 1.6-3.4 0-1.1-.4-2.3-.7-3.2.9.3 2.3.5 4 .2 1-.2 1.9-.8 2.6-1.3.2.4.4 1 1 1.4.7.6 1.9.4 2.7.3-.1.8-.2 2 0 3 .2.8.8 1.5 1.4 2-.6.2-1.3.5-1.8 1.1z" fill="#1237a5"/></svg>