<svg id="Layer_1" enable-background="new 0 0 66 66" height="512" viewBox="0 0 66 66" width="512" xmlns="http://www.w3.org/2000/svg"><g><circle cx="33" cy="14.7" fill="#ef6561" r="8.7"/><g stroke="#101f2d" stroke-linecap="round" stroke-linejoin="round" stroke-miterlimit="10" stroke-width="2"><path d="m64 29.7v30.2c0 2.2-1.8 4-4 4h-54c-2.2 0-4-1.8-4-4v-30.2c0-2.2 1.8-4 4-4h2.3v27.9c0 2.2 1.8 4 4 4h14.7c3.1 0 5.6 2.3 6 5.2 0 .3.1.6.1.9 0-3.4 2.7-6.1 6.1-6.1h14.6c2.2 0 4-1.8 4-4v-27.9h2.2c2.2 0 4 1.8 4 4z" fill="#64c4f6"/><path d="m33 27.6v36.1" fill="none"/><path d="m33.1 63.7c0-3.4-2.7-6.1-6.1-6.1h-14.7c-2.2 0-4-1.8-4-4v-30c0-2.2 1.8-4 4-4h9.1" fill="none"/><path d="m33 28.2v35.5" fill="none"/><path d="m33.1 63.7c0-3.4 2.7-6.1 6.1-6.1h14.6c2.2 0 4-1.8 4-4v-30c0-2.2-1.8-4-4-4h-8.4" fill="none"/><g fill="#ef6561"><path d="m20.7 26 4.6 11.5"/><path d="m16 37.5 4.7-11.5"/><path d="m17.9 32.7h5.4"/></g><g fill="#ef6561"><path d="m12.2 41.7v10.9"/><path d="m15 47.2h-2.7v-5.5h2.7c1.5 0 2.7 1.2 2.7 2.7 0 1.5-1.2 2.8-2.7 2.8z"/><path d="m15 52.6h-2.7v-5.5h2.7c1.5 0 2.7 1.2 2.7 2.7 0 1.6-1.2 2.8-2.7 2.8z"/></g><path d="m29.1 52.6c-2.9 0-5.2-2.3-5.2-5.2s2.3-5.2 5.2-5.2" fill="none"/><g fill="none"><path d="m45.4 26.5v2.9"/><path d="m40.6 29.9h9.6"/><g><path d="m42 29.9c.9 4.2 3.1 7.1 6.7 8.6"/><path d="m48.7 29.9c-.9 4.2-3.1 7.1-6.7 8.6"/></g></g><g fill="none"><g><path d="m37 43h6"/><path d="m39.5 43-1.2 9.4"/><path d="m37 52.4h5.7"/><path d="m37 47.3h3.9l.8 5.1"/></g><g><path d="m50.4 42.3v10.1"/><path d="m48.4 51.1h4.1"/><path d="m47.3 44.4h6"/><path d="m50.3 45.3s-1.9 2.9-3.4 3.3"/><path d="m50.5 45.3s1.8 2.7 3.3 3.1"/></g></g><path d="m33 2.1v25.2" fill="none"/><circle cx="33" cy="14.7" fill="none" r="12.6"/><ellipse cx="33" cy="14.7" fill="none" rx="6.7" ry="12.6"/><ellipse cx="33" cy="14.7" fill="none" rx="12.6" ry="6.7"/><path d="m20.4 14.7h25.2" fill="none"/></g></g></svg>